<?xml version="1.0" encoding="UTF-8"?>
<!DOCTYPE svg PUBLIC "-//W3C//DTD SVG 1.1//EN" "http://www.w3.org/Graphics/SVG/1.1/DTD/svg11.dtd">
<!-- Creator: CorelDRAW X8 -->
<svg xmlns="http://www.w3.org/2000/svg" xml:space="preserve" width="279.4mm" height="215.9mm" version="1.1" style="shape-rendering:geometricPrecision; text-rendering:geometricPrecision; image-rendering:optimizeQuality; fill-rule:evenodd; clip-rule:evenodd"
viewBox="0 0 27940 21590"
 xmlns:xlink="http://www.w3.org/1999/xlink">
 <defs>
  <style type="text/css">
   <![CDATA[
    .str0 {stroke:#D2D3D5;stroke-width:7.62}
    .fil2 {fill:none}
    .fil0 {fill:black}
    .fil3 {fill:#FEFEFE}
    .fil1 {fill:#3E4095;fill-opacity:0.501961}
   ]]>
  </style>
   <clipPath id="id0">
    <path d="M9470 6295l9000 0 0 9000 -9000 0 0 -9000z"/>
   </clipPath>
 </defs>
 <g id="Capa_x0020_1">
  <metadata id="CorelCorpID_0Corel-Layer"/>
  <polygon class="fil0" points="9470,6295 18470,6295 18470,15295 9470,15295 "/>
  <g style="clip-path:url(#id0)">
   <g id="_213432264">
    <path id="1" class="fil1" d="M10491 20173l581 1033 4421 362 79 -2631 -946 -1132c0,0 -3919,-1919 -3862,-1728 57,190 -273,4096 -273,4096z"/>
   </g>
  </g>
  <polygon class="fil2 str0" points="9470,6295 18470,6295 18470,15295 9470,15295 "/>
  <path class="fil3" d="M15974 12225l168 -168c62,-63 62,-165 0,-227l-301 -301 -568 222 1059 1059c62,62 62,164 0,227l-169 168c-62,63 -164,63 -227,0l-1064 -1064 -223 568 307 307c63,62 165,62 227,0l169 -169c62,-62 62,-164 0,-226l-480 -480 108 -276 293 -114 474 474c62,63 164,63 227,0zm-1548 1051l720 720c62,62 164,62 226,0l169 -169c62,-62 62,-164 0,-226l-892 -892 -210 535c-4,11 -8,22 -13,32zm2527 -861l169 -169c62,-62 62,-164 0,-227l-715 -714c-20,10 -40,19 -61,27l0 0 -505 197 886 886c62,62 164,62 226,0zm414 2072l246 -247c41,-41 41,-108 0,-149l-111 -111c-41,-41 -108,-41 -149,0l-246 247c-41,41 -41,108 0,149l111 111c41,41 108,41 149,0zm465 -1181l181 -181c59,-59 59,-155 0,-214l-159 -160c-59,-58 -155,-58 -214,0l-181 182c-59,58 -59,155 0,214l159 159c59,59 156,59 214,0zm-925 -147l169 -168c62,-63 62,-165 0,-227l-553 -553c-62,-62 -164,-62 -227,0l-168 169c-63,62 -63,164 0,226l553 553c62,63 164,63 226,0zm101 891l168 -169c63,-62 63,-164 0,-226l-480 -480c-62,-63 -164,-63 -226,0l-169 168c-62,63 -62,165 0,227l480 480c62,62 164,62 227,0zm-989 -198l169 -168c62,-63 62,-165 0,-227l-196 -196c-62,-62 -164,-62 -226,0l-169 169c-62,62 -62,164 0,227l196 195c62,63 164,63 226,0zm-433 357l169 -168c62,-62 164,-62 226,0l212 212c63,62 63,164 0,226l-168 169c-63,62 -165,62 -227,0l-212 -212c-62,-62 -62,-164 0,-227z"/>
  <path class="fil3" d="M12706 9203l3531 1269c159,57 241,232 184,391 -32,90 -102,156 -186,185l-1490 582 -589 1504c-62,157 -239,234 -396,172 -85,-33 -147,-101 -176,-181l0 0 -1269 -3531c-57,-159 25,-334 184,-391 70,-25 142,-23 207,0z"/>
  <rect class="fil3" transform="matrix(0.457635 -0.457635 0.457635 0.457635 10542.1 7770.44)" width="767" height="2672" rx="220" ry="220"/>
  <rect class="fil3" x="12283" y="6895" width="497" height="1729" rx="142" ry="142"/>
  <rect class="fil3" transform="matrix(-1.71304E-14 0.647193 0.647193 1.71304E-14 10018.1 9159.86)" width="767" height="2672" rx="220" ry="220"/>
  <rect class="fil3" transform="matrix(0.457635 0.457635 -0.457635 0.457635 14139 7370.17)" width="767" height="2672" rx="220" ry="220"/>
  <rect class="fil3" transform="matrix(0.457635 0.457635 0.457635 -0.457635 10493 11016.2)" width="767" height="2672" rx="220" ry="220"/>
 </g>
</svg>
